<svg xmlns="http://www.w3.org/2000/svg" xmlns:xlink="http://www.w3.org/1999/xlink" width="2368" height="1002" contentScriptType="application/ecmascript" contentStyleType="text/css" style="width:2368px;height:1002px" preserveAspectRatio="none" version="1.1" viewBox="0 0 2368 1002" zoomAndPan="magnify"><g><text x="675" y="37.371" fill="#000" font-family="sans-serif" font-size="36" lengthAdjust="spacingAndGlyphs" textLength="992">Keyple Distributed - Keyple Core API - 1.0.0 (24/11/2020)</text><polygon fill="#F8F9F9" points="32 57.281 374 57.281 388 104.5 2334 104.5 2334 989.281 32 989.281 32 57.281" style="stroke:#000;stroke-width:3"/><line style="stroke:#000;stroke-width:3" x1="32" x2="388" y1="104.5" y2="104.5"/><text x="40" y="90.348" fill="#000" font-family="sans-serif" font-size="28" font-weight="bold" lengthAdjust="spacingAndGlyphs" textLength="330">org.eclipse.keyple.core</text><polygon fill="#F2F3F4" points="1990 389.281 2198 389.281 2212 436.5 2286 436.5 2286 617.281 1990 617.281 1990 389.281" style="stroke:#000;stroke-width:3"/><line style="stroke:#000;stroke-width:3" x1="1990" x2="2212" y1="436.5" y2="436.5"/><text x="1998" y="422.348" fill="#000" font-family="sans-serif" font-size="28" font-weight="bold" lengthAdjust="spacingAndGlyphs" textLength="196">card.message</text><polygon fill="#F2F3F4" points="80 145.281 198 145.281 212 192.5 1942 192.5 1942 941.281 80 941.281 80 145.281" style="stroke:#000;stroke-width:3"/><line style="stroke:#000;stroke-width:3" x1="80" x2="212" y1="192.5" y2="192.5"/><text x="88" y="178.348" fill="#000" font-family="sans-serif" font-size="28" font-weight="bold" lengthAdjust="spacingAndGlyphs" textLength="106">service</text><polygon fill="#E5E7E9" points="356 389.281 450 389.281 464 436.5 1076 436.5 1076 893.281 356 893.281 356 389.281" style="stroke:#000;stroke-width:3"/><line style="stroke:#000;stroke-width:3" x1="356" x2="464" y1="436.5" y2="436.5"/><text x="364" y="422.348" fill="#000" font-family="sans-serif" font-size="28" font-weight="bold" lengthAdjust="spacingAndGlyphs" textLength="82">event</text><polygon fill="#E5E7E9" points="1124 665.281 1224 665.281 1238 712.5 1894 712.5 1894 893.281 1124 893.281 1124 665.281" style="stroke:#000;stroke-width:3"/><line style="stroke:#000;stroke-width:3" x1="1124" x2="1238" y1="712.5" y2="712.5"/><text x="1132" y="698.348" fill="#000" font-family="sans-serif" font-size="28" font-weight="bold" lengthAdjust="spacingAndGlyphs" textLength="88">plugin</text><rect id="ProxyReader" width="230" height="123.672" x="2023" y="461.281" fill="#E59866" codeLine="110" style="stroke:#2c3e50;stroke-width:3"/><ellipse cx="2053" cy="493.281" fill="#B4A7E5" rx="22" ry="22" style="stroke:#b4a7e5;stroke-width:2"/><path fill="#000" d="M2055,487.2813 L2055,499.2813 L2059,499.2813 L2059.9688,499.2813 L2061,500.5313 L2061,501.2813 L2061,502.0313 L2059.9688,503.2813 L2059,503.2813 L2047,503.2813 L2046.0313,503.2813 L2045,502.0313 L2045,501.2813 L2045,500.5313 L2046.0313,499.2813 L2047,499.2813 L2051,499.2813 L2051,487.2813 L2047,487.2813 L2046.0313,487.2813 L2045,486.0313 L2045,485.2813 L2045,484.5313 L2046.0313,483.2813 L2047,483.2813 L2059,483.2813 L2059.9688,483.2813 L2061,484.5313 L2061,485.2813 L2061,486.0313 L2059.9688,487.2813 L2059,487.2813 L2055,487.2813 Z"/><ellipse cx="2091" cy="492.281" fill="#84BE84" rx="6" ry="6" style="stroke:#038048;stroke-width:2"/><text x="2103" y="503.102" fill="#000" font-family="sans-serif" font-size="24" font-style="italic" lengthAdjust="spacingAndGlyphs" textLength="144">ProxyReader</text><line style="stroke:#2c3e50;stroke-width:3" x1="2025" x2="2251" y1="525.281" y2="525.281"/><text x="2035" y="556.119" fill="#000" font-family="sans-serif" font-size="22" lengthAdjust="spacingAndGlyphs" textLength="18">...</text><line style="stroke:#2c3e50;stroke-width:3" x1="2025" x2="2251" y1="568.953" y2="568.953"/><rect id="PluginFactory" width="236" height="123.672" x="1516" y="217.281" fill="#E59866" codeLine="106" style="stroke:#2c3e50;stroke-width:3"/><ellipse cx="1546" cy="249.281" fill="#B4A7E5" rx="22" ry="22" style="stroke:#b4a7e5;stroke-width:2"/><path fill="#000" d="M1548,243.2813 L1548,255.2813 L1552,255.2813 L1552.9688,255.2813 L1554,256.5313 L1554,257.2813 L1554,258.0313 L1552.9688,259.2813 L1552,259.2813 L1540,259.2813 L1539.0313,259.2813 L1538,258.0313 L1538,257.2813 L1538,256.5313 L1539.0313,255.2813 L1540,255.2813 L1544,255.2813 L1544,243.2813 L1540,243.2813 L1539.0313,243.2813 L1538,242.0313 L1538,241.2813 L1538,240.5313 L1539.0313,239.2813 L1540,239.2813 L1552,239.2813 L1552.9688,239.2813 L1554,240.5313 L1554,241.2813 L1554,242.0313 L1552.9688,243.2813 L1552,243.2813 L1548,243.2813 Z"/><ellipse cx="1584" cy="248.281" fill="#84BE84" rx="6" ry="6" style="stroke:#038048;stroke-width:2"/><text x="1596" y="259.102" fill="#000" font-family="sans-serif" font-size="24" font-style="italic" lengthAdjust="spacingAndGlyphs" textLength="150">PluginFactory</text><line style="stroke:#2c3e50;stroke-width:3" x1="1518" x2="1750" y1="281.281" y2="281.281"/><text x="1528" y="312.119" fill="#000" font-family="sans-serif" font-size="22" lengthAdjust="spacingAndGlyphs" textLength="18">...</text><line style="stroke:#2c3e50;stroke-width:3" x1="1518" x2="1750" y1="324.953" y2="324.953"/><rect id="Plugin" width="156" height="123.672" x="296" y="217.281" fill="#E59866" codeLine="107" style="stroke:#2c3e50;stroke-width:3"/><ellipse cx="326" cy="249.281" fill="#B4A7E5" rx="22" ry="22" style="stroke:#b4a7e5;stroke-width:2"/><path fill="#000" d="M328,243.2813 L328,255.2813 L332,255.2813 L332.9688,255.2813 L334,256.5313 L334,257.2813 L334,258.0313 L332.9688,259.2813 L332,259.2813 L320,259.2813 L319.0313,259.2813 L318,258.0313 L318,257.2813 L318,256.5313 L319.0313,255.2813 L320,255.2813 L324,255.2813 L324,243.2813 L320,243.2813 L319.0313,243.2813 L318,242.0313 L318,241.2813 L318,240.5313 L319.0313,239.2813 L320,239.2813 L332,239.2813 L332.9688,239.2813 L334,240.5313 L334,241.2813 L334,242.0313 L332.9688,243.2813 L332,243.2813 L328,243.2813 Z"/><ellipse cx="364" cy="248.281" fill="#84BE84" rx="6" ry="6" style="stroke:#038048;stroke-width:2"/><text x="376" y="259.102" fill="#000" font-family="sans-serif" font-size="24" font-style="italic" lengthAdjust="spacingAndGlyphs" textLength="70">Plugin</text><line style="stroke:#2c3e50;stroke-width:3" x1="298" x2="450" y1="281.281" y2="281.281"/><text x="308" y="312.119" fill="#000" font-family="sans-serif" font-size="22" lengthAdjust="spacingAndGlyphs" textLength="18">...</text><line style="stroke:#2c3e50;stroke-width:3" x1="298" x2="450" y1="324.953" y2="324.953"/><rect id="PoolPlugin" width="206" height="123.672" x="113" y="461.281" fill="#E59866" codeLine="108" style="stroke:#2c3e50;stroke-width:3"/><ellipse cx="143" cy="493.281" fill="#B4A7E5" rx="22" ry="22" style="stroke:#b4a7e5;stroke-width:2"/><path fill="#000" d="M145,487.2813 L145,499.2813 L149,499.2813 L149.9688,499.2813 L151,500.5313 L151,501.2813 L151,502.0313 L149.9688,503.2813 L149,503.2813 L137,503.2813 L136.0313,503.2813 L135,502.0313 L135,501.2813 L135,500.5313 L136.0313,499.2813 L137,499.2813 L141,499.2813 L141,487.2813 L137,487.2813 L136.0313,487.2813 L135,486.0313 L135,485.2813 L135,484.5313 L136.0313,483.2813 L137,483.2813 L149,483.2813 L149.9688,483.2813 L151,484.5313 L151,485.2813 L151,486.0313 L149.9688,487.2813 L149,487.2813 L145,487.2813 Z"/><ellipse cx="181" cy="492.281" fill="#84BE84" rx="6" ry="6" style="stroke:#038048;stroke-width:2"/><text x="193" y="503.102" fill="#000" font-family="sans-serif" font-size="24" font-style="italic" lengthAdjust="spacingAndGlyphs" textLength="120">PoolPlugin</text><line style="stroke:#2c3e50;stroke-width:3" x1="115" x2="317" y1="525.281" y2="525.281"/><text x="125" y="556.119" fill="#000" font-family="sans-serif" font-size="22" lengthAdjust="spacingAndGlyphs" textLength="18">...</text><line style="stroke:#2c3e50;stroke-width:3" x1="115" x2="317" y1="568.953" y2="568.953"/><rect id="Reader" width="168" height="123.672" x="966" y="217.281" fill="#E59866" codeLine="109" style="stroke:#2c3e50;stroke-width:3"/><ellipse cx="996" cy="249.281" fill="#B4A7E5" rx="22" ry="22" style="stroke:#b4a7e5;stroke-width:2"/><path fill="#000" d="M998,243.2813 L998,255.2813 L1002,255.2813 L1002.9688,255.2813 L1004,256.5313 L1004,257.2813 L1004,258.0313 L1002.9688,259.2813 L1002,259.2813 L990,259.2813 L989.0313,259.2813 L988,258.0313 L988,257.2813 L988,256.5313 L989.0313,255.2813 L990,255.2813 L994,255.2813 L994,243.2813 L990,243.2813 L989.0313,243.2813 L988,242.0313 L988,241.2813 L988,240.5313 L989.0313,239.2813 L990,239.2813 L1002,239.2813 L1002.9688,239.2813 L1004,240.5313 L1004,241.2813 L1004,242.0313 L1002.9688,243.2813 L1002,243.2813 L998,243.2813 Z"/><ellipse cx="1034" cy="248.281" fill="#84BE84" rx="6" ry="6" style="stroke:#038048;stroke-width:2"/><text x="1046" y="259.102" fill="#000" font-family="sans-serif" font-size="24" font-style="italic" lengthAdjust="spacingAndGlyphs" textLength="82">Reader</text><line style="stroke:#2c3e50;stroke-width:3" x1="968" x2="1132" y1="281.281" y2="281.281"/><text x="978" y="312.119" fill="#000" font-family="sans-serif" font-size="22" lengthAdjust="spacingAndGlyphs" textLength="18">...</text><line style="stroke:#2c3e50;stroke-width:3" x1="968" x2="1132" y1="324.953" y2="324.953"/><rect id="ObservablePlugin" width="286" height="123.672" x="389" y="461.281" fill="#E59866" codeLine="112" style="stroke:#2c3e50;stroke-width:3"/><ellipse cx="419" cy="493.281" fill="#B4A7E5" rx="22" ry="22" style="stroke:#b4a7e5;stroke-width:2"/><path fill="#000" d="M421,487.2813 L421,499.2813 L425,499.2813 L425.9688,499.2813 L427,500.5313 L427,501.2813 L427,502.0313 L425.9688,503.2813 L425,503.2813 L413,503.2813 L412.0313,503.2813 L411,502.0313 L411,501.2813 L411,500.5313 L412.0313,499.2813 L413,499.2813 L417,499.2813 L417,487.2813 L413,487.2813 L412.0313,487.2813 L411,486.0313 L411,485.2813 L411,484.5313 L412.0313,483.2813 L413,483.2813 L425,483.2813 L425.9688,483.2813 L427,484.5313 L427,485.2813 L427,486.0313 L425.9688,487.2813 L425,487.2813 L421,487.2813 Z"/><ellipse cx="457" cy="492.281" fill="#84BE84" rx="6" ry="6" style="stroke:#038048;stroke-width:2"/><text x="469" y="503.102" fill="#000" font-family="sans-serif" font-size="24" font-style="italic" lengthAdjust="spacingAndGlyphs" textLength="200">ObservablePlugin</text><line style="stroke:#2c3e50;stroke-width:3" x1="391" x2="673" y1="525.281" y2="525.281"/><text x="401" y="556.119" fill="#000" font-family="sans-serif" font-size="22" lengthAdjust="spacingAndGlyphs" textLength="18">...</text><line style="stroke:#2c3e50;stroke-width:3" x1="391" x2="673" y1="568.953" y2="568.953"/><rect id="ObservableReader" width="298" height="123.672" x="745" y="461.281" fill="#E59866" codeLine="113" style="stroke:#2c3e50;stroke-width:3"/><ellipse cx="775" cy="493.281" fill="#B4A7E5" rx="22" ry="22" style="stroke:#b4a7e5;stroke-width:2"/><path fill="#000" d="M777,487.2813 L777,499.2813 L781,499.2813 L781.9688,499.2813 L783,500.5313 L783,501.2813 L783,502.0313 L781.9688,503.2813 L781,503.2813 L769,503.2813 L768.0313,503.2813 L767,502.0313 L767,501.2813 L767,500.5313 L768.0313,499.2813 L769,499.2813 L773,499.2813 L773,487.2813 L769,487.2813 L768.0313,487.2813 L767,486.0313 L767,485.2813 L767,484.5313 L768.0313,483.2813 L769,483.2813 L781,483.2813 L781.9688,483.2813 L783,484.5313 L783,485.2813 L783,486.0313 L781.9688,487.2813 L781,487.2813 L777,487.2813 Z"/><ellipse cx="813" cy="492.281" fill="#84BE84" rx="6" ry="6" style="stroke:#038048;stroke-width:2"/><text x="825" y="503.102" fill="#000" font-family="sans-serif" font-size="24" font-style="italic" lengthAdjust="spacingAndGlyphs" textLength="212">ObservableReader</text><line style="stroke:#2c3e50;stroke-width:3" x1="747" x2="1041" y1="525.281" y2="525.281"/><text x="757" y="556.119" fill="#000" font-family="sans-serif" font-size="22" lengthAdjust="spacingAndGlyphs" textLength="18">...</text><line style="stroke:#2c3e50;stroke-width:3" x1="747" x2="1041" y1="568.953" y2="568.953"/><rect id="ReaderObserver" width="270" height="123.672" x="759" y="737.281" fill="#E59866" codeLine="115" style="stroke:#2c3e50;stroke-width:3"/><ellipse cx="789" cy="769.281" fill="#B4A7E5" rx="22" ry="22" style="stroke:#b4a7e5;stroke-width:2"/><path fill="#000" d="M791,763.2813 L791,775.2813 L795,775.2813 L795.9688,775.2813 L797,776.5313 L797,777.2813 L797,778.0313 L795.9688,779.2813 L795,779.2813 L783,779.2813 L782.0313,779.2813 L781,778.0313 L781,777.2813 L781,776.5313 L782.0313,775.2813 L783,775.2813 L787,775.2813 L787,763.2813 L783,763.2813 L782.0313,763.2813 L781,762.0313 L781,761.2813 L781,760.5313 L782.0313,759.2813 L783,759.2813 L795,759.2813 L795.9688,759.2813 L797,760.5313 L797,761.2813 L797,762.0313 L795.9688,763.2813 L795,763.2813 L791,763.2813 Z"/><ellipse cx="827" cy="768.281" fill="#84BE84" rx="6" ry="6" style="stroke:#038048;stroke-width:2"/><text x="839" y="779.102" fill="#000" font-family="sans-serif" font-size="24" font-style="italic" lengthAdjust="spacingAndGlyphs" textLength="184">ReaderObserver</text><line style="stroke:#2c3e50;stroke-width:3" x1="761" x2="1027" y1="801.281" y2="801.281"/><text x="771" y="832.119" fill="#000" font-family="sans-serif" font-size="22" lengthAdjust="spacingAndGlyphs" textLength="18">...</text><line style="stroke:#2c3e50;stroke-width:3" x1="761" x2="1027" y1="844.953" y2="844.953"/><rect id="AbstractReader" width="258" height="123.672" x="1603" y="737.281" fill="#E59866" codeLine="111" style="stroke:#2c3e50;stroke-width:3"/><ellipse cx="1633" cy="769.281" fill="#A9DCDF" rx="22" ry="22" style="stroke:#a9dcdf;stroke-width:2"/><path fill="#000" d="M1636.5,772.2813 L1629.9063,772.2813 L1629.0313,774.2813 L1629.0313,774.2813 L1629.9688,774.2813 L1631,775.5313 L1631,776.2813 L1631,777.0313 L1629.9688,778.2813 L1629.0313,778.2813 L1625.25,778.2813 L1624.0313,778.2813 L1623,777.0313 L1623,776.2813 L1623,775.5313 L1624.0313,774.2813 L1625.25,774.2813 L1629.875,762.2813 L1628.125,762.2813 L1626.0313,762.2813 L1625,761.0313 L1625,760.2813 L1625,759.5313 L1626.0313,758.2813 L1628.125,758.2813 L1635.4688,758.2813 L1640.8438,774.2813 L1641.9688,774.2813 L1641.9688,774.2813 L1643,775.5313 L1643,776.2813 L1643,777.0313 L1641.9688,778.2813 L1640.8438,778.2813 L1637.0625,778.2813 L1636.0313,778.2813 L1635,777.0313 L1635,776.2813 L1635,775.5313 L1636.0313,774.2813 L1637.0625,774.2813 L1637.0625,774.2813 L1636.5,772.2813 Z M1635.4063,768.2813 L1633,761.125 L1630.9375,768.2813 L1635.4063,768.2813 Z"/><ellipse cx="1671" cy="768.281" fill="#84BE84" rx="6" ry="6" style="stroke:#038048;stroke-width:2"/><text x="1683" y="779.102" fill="#000" font-family="sans-serif" font-size="24" font-style="italic" lengthAdjust="spacingAndGlyphs" textLength="172">AbstractReader</text><line style="stroke:#2c3e50;stroke-width:3" x1="1605" x2="1859" y1="801.281" y2="801.281"/><text x="1615" y="832.119" fill="#000" font-family="sans-serif" font-size="22" lengthAdjust="spacingAndGlyphs" textLength="18">...</text><line style="stroke:#2c3e50;stroke-width:3" x1="1605" x2="1859" y1="844.953" y2="844.953"/><rect id="ObservableReaderNotifier" width="376" height="123.672" x="1156" y="737.281" fill="#E59866" codeLine="114" style="stroke:#2c3e50;stroke-width:3"/><ellipse cx="1186" cy="769.281" fill="#B4A7E5" rx="22" ry="22" style="stroke:#b4a7e5;stroke-width:2"/><path fill="#000" d="M1188,763.2813 L1188,775.2813 L1192,775.2813 L1192.9688,775.2813 L1194,776.5313 L1194,777.2813 L1194,778.0313 L1192.9688,779.2813 L1192,779.2813 L1180,779.2813 L1179.0313,779.2813 L1178,778.0313 L1178,777.2813 L1178,776.5313 L1179.0313,775.2813 L1180,775.2813 L1184,775.2813 L1184,763.2813 L1180,763.2813 L1179.0313,763.2813 L1178,762.0313 L1178,761.2813 L1178,760.5313 L1179.0313,759.2813 L1180,759.2813 L1192,759.2813 L1192.9688,759.2813 L1194,760.5313 L1194,761.2813 L1194,762.0313 L1192.9688,763.2813 L1192,763.2813 L1188,763.2813 Z"/><ellipse cx="1224" cy="768.281" fill="#84BE84" rx="6" ry="6" style="stroke:#038048;stroke-width:2"/><text x="1236" y="779.102" fill="#000" font-family="sans-serif" font-size="24" font-style="italic" lengthAdjust="spacingAndGlyphs" textLength="290">ObservableReaderNotifier</text><line style="stroke:#2c3e50;stroke-width:3" x1="1158" x2="1530" y1="801.281" y2="801.281"/><text x="1168" y="832.119" fill="#000" font-family="sans-serif" font-size="22" lengthAdjust="spacingAndGlyphs" textLength="18">...</text><line style="stroke:#2c3e50;stroke-width:3" x1="1158" x2="1530" y1="844.953" y2="844.953"/><path id="Plugin-backto-PoolPlugin" fill="none" d="M312.06,375.3673 C293.156,404.0812 272.884,434.8753 255.858,460.7392" style="stroke:#a80036;stroke-width:2"/><polygon fill="none" points="300.442 367.555 334.13 341.843 323.828 382.951 300.442 367.555" style="stroke:#a80036;stroke-width:2"/><path id="Plugin-backto-ObservablePlugin" fill="none" d="M435.94,375.3673 C454.844,404.0812 475.116,434.8753 492.142,460.7392" style="stroke:#a80036;stroke-width:2"/><polygon fill="none" points="424.172 382.951 413.87 341.843 447.558 367.555 424.172 382.951" style="stroke:#a80036;stroke-width:2"/><path id="Reader-backto-ObservableReader" fill="none" d="M988.228,376.3153 C969.74,404.7573 949.98,435.1593 933.352,460.7392" style="stroke:#a80036;stroke-width:2"/><polygon fill="none" points="977.096 367.751 1010.634 341.843 1000.574 383.011 977.096 367.751" style="stroke:#a80036;stroke-width:2"/><path id="ProxyReader-backto-AbstractReader" fill="none" d="M2014.4,608.0833 C1952.396,649.6273 1878.652,699.0313 1822.074,736.9373" style="stroke:#a80036;stroke-width:2;stroke-dasharray:7,7"/><polygon fill="none" points="2007.38 595.941 2048.4 585.309 2022.96 619.203 2007.38 595.941" style="stroke:#a80036;stroke-width:2"/><path id="ObservableReader-backto-ObservableReaderNotifier" fill="none" d="M1028.12,606.3493 C1097.434,648.2473 1180.58,698.5033 1244.166,736.9373" style="stroke:#a80036;stroke-width:2"/><polygon fill="none" points="1020.302 617.983 993.312 585.309 1034.786 594.019 1020.302 617.983" style="stroke:#a80036;stroke-width:2"/><path id="Reader-backto-ProxyReader" fill="none" d="M1173.862,308.6033 C1386.004,355.3993 1815.916,450.2333 2022.32,495.7613" codeLine="95" style="stroke:#a80036;stroke-width:2"/><polygon fill="none" points="1170.514 322.201 1134.468 299.913 1176.544 294.859 1170.514 322.201" style="stroke:#a80036;stroke-width:2"/><path id="ObservableReader-backto-ReaderObserver" fill="none" d="M894,616.0353 C894,655.8693 894,701.5493 894,737.0853" codeLine="96" style="stroke:#3498db;stroke-width:2"/><ellipse cx="894" cy="601.647" fill="#FFF" rx="16" ry="16" style="stroke:#3498db;stroke-width:2"/><line style="stroke:#3498db;stroke-width:2" x1="894" x2="894" y1="617.647" y2="585.647"/><line style="stroke:#3498db;stroke-width:2" x1="878" x2="910" y1="601.647" y2="601.647"/></g></svg>